<svg width="300" height="260" viewBox="0 0 300 260" fill="none" xmlns="http://www.w3.org/2000/svg">
<path d="M20 0H0V20H20V0Z" fill="white"/>
<path d="M60 0H40V20H60V0Z" fill="white"/>
<path d="M80 0H100V20H80V0Z" fill="white"/>
<path d="M140 0H120V20H140V0Z" fill="white"/>
<path d="M160 0H180V20H160V0Z" fill="white"/>
<path d="M220 0H200V20H220V0Z" fill="white"/>
<path d="M240 0H260V20H240V0Z" fill="white"/>
<path d="M300 0H280V20H300V0Z" fill="white"/>
<path d="M0 40H20V60H0V40Z" fill="white"/>
<path d="M60 40H40V60H60V40Z" fill="white"/>
<path d="M80 40H100V60H80V40Z" fill="white"/>
<path d="M140 40H120V60H140V40Z" fill="white"/>
<path d="M160 40H180V60H160V40Z" fill="white"/>
<path d="M220 40H200V60H220V40Z" fill="white"/>
<path d="M240 40H260V60H240V40Z" fill="white"/>
<path d="M300 40H280V60H300V40Z" fill="white"/>
<path d="M0 80H20V100H0V80Z" fill="white"/>
<path d="M60 80H40V100H60V80Z" fill="white"/>
<path d="M80 80H100V100H80V80Z" fill="white"/>
<path d="M140 80H120V100H140V80Z" fill="white"/>
<path d="M160 80H180V100H160V80Z" fill="white"/>
<path d="M220 80H200V100H220V80Z" fill="white"/>
<path d="M240 80H260V100H240V80Z" fill="white"/>
<path d="M300 80H280V100H300V80Z" fill="white"/>
<path d="M0 120H20V140H0V120Z" fill="white"/>
<path d="M60 120H40V140H60V120Z" fill="white"/>
<path d="M80 120H100V140H80V120Z" fill="white"/>
<path d="M140 120H120V140H140V120Z" fill="white"/>
<path d="M160 120H180V140H160V120Z" fill="white"/>
<path d="M220 120H200V140H220V120Z" fill="white"/>
<path d="M240 120H260V140H240V120Z" fill="white"/>
<path d="M300 120H280V140H300V120Z" fill="white"/>
<path d="M0 160H20V180H0V160Z" fill="white"/>
<path d="M60 160H40V180H60V160Z" fill="white"/>
<path d="M80 160H100V180H80V160Z" fill="white"/>
<path d="M140 160H120V180H140V160Z" fill="white"/>
<path d="M160 160H180V180H160V160Z" fill="white"/>
<path d="M220 160H200V180H220V160Z" fill="white"/>
<path d="M240 160H260V180H240V160Z" fill="white"/>
<path d="M300 160H280V180H300V160Z" fill="white"/>
<path d="M0 200H20V220H0V200Z" fill="white"/>
<path d="M60 200H40V220H60V200Z" fill="white"/>
<path d="M80 200H100V220H80V200Z" fill="white"/>
<path d="M140 200H120V220H140V200Z" fill="white"/>
<path d="M160 200H180V220H160V200Z" fill="white"/>
<path d="M220 200H200V220H220V200Z" fill="white"/>
<path d="M240 200H260V220H240V200Z" fill="white"/>
<path d="M300 200H280V220H300V200Z" fill="white"/>
<path d="M0 240H20V260H0V240Z" fill="white"/>
<path d="M60 240H40V260H60V240Z" fill="white"/>
<path d="M80 240H100V260H80V240Z" fill="white"/>
<path d="M140 240H120V260H140V240Z" fill="white"/>
<path d="M160 240H180V260H160V240Z" fill="white"/>
<path d="M220 240H200V260H220V240Z" fill="white"/>
<path d="M240 240H260V260H240V240Z" fill="white"/>
<path d="M300 240H280V260H300V240Z" fill="white"/>
</svg>
